<svg width="128" height="128" viewBox="0 0 128 128" fill="none" xmlns="http://www.w3.org/2000/svg">
<path d="M47.5956 32.7148C47.982 31.6379 49.0652 30.9748 50.2005 31.1235C51.3348 31.2714 52.2134 32.1895 52.311 33.3293L56.1999 78.766L63.4821 52.5163C63.7799 51.4434 64.7634 50.7054 65.881 50.734C66.9941 50.7587 67.9487 51.5353 68.1987 52.6204L72.254 70.2131L79.1779 41.122C79.4489 39.9836 80.4929 39.204 81.6599 39.2545C82.8286 39.3095 83.7926 40.1887 83.9553 41.3474L89.1228 78.1865L91.4396 70.6995C91.755 69.6805 92.6977 68.9854 93.7645 68.9854H119.8C123.621 63.2318 126.341 57.5034 127.245 51.9934C129.231 39.7984 127.294 29.741 121.475 22.1052C115.598 14.3968 106.672 9.99873 94.1609 8.65873C92.9587 8.53796 91.8603 8.48108 90.7715 8.48108C81.9169 8.48108 72.9893 11.774 66.1284 17.3439C59.2772 11.774 50.3416 8.48108 41.504 8.48108C40.4044 8.48108 39.3156 8.53796 38.1052 8.65873C25.5941 9.99873 16.6586 14.3968 10.79 22.1052C4.97214 29.7413 3.03318 39.7984 5.0196 51.9934C5.93859 57.5904 8.72748 63.4109 12.6413 69.2534H34.4856L47.5956 32.7148Z" fill="#EB5757"/>
<path d="M90.5512 90.0345C90.2142 91.1235 89.1638 91.8335 88.031 91.7408C86.8951 91.6492 85.9746 90.7816 85.8164 89.653L80.927 54.7952L74.5838 81.4467C74.3231 82.5433 73.343 83.3166 72.2166 83.3169C72.2135 83.3169 72.2108 83.3169 72.208 83.3169C71.0776 83.3129 70.099 82.5311 69.845 81.4299L65.6097 63.056L57.274 93.102C56.9792 94.1634 56.0134 94.885 54.9307 94.8853C54.8553 94.8853 54.7799 94.8816 54.7038 94.8746C53.5311 94.7657 52.6048 93.8324 52.5045 92.6588L48.4124 44.8512L38.4888 72.509C38.142 73.4757 37.2254 74.1206 36.1982 74.1206H16.1463C24.2383 84.6642 35.3278 95.0985 45.0455 104.24C45.0455 104.24 53.327 112.554 55.8123 114.685C57.688 116.291 61.7393 119.519 66.1368 119.519C70.5279 119.519 74.5887 116.291 76.4531 114.685C78.9388 112.554 87.22 104.24 87.22 104.24C97.0191 95.0221 108.214 84.4868 116.323 73.8526H95.5593L90.5512 90.0345Z" fill="#EB5757"/>
<path d="M125.095 68.9855H119.8H93.7648C92.698 68.9855 91.7556 69.6806 91.4398 70.6996L89.123 78.1866L83.9556 41.3474C83.7929 40.1887 82.8289 39.3096 81.6601 39.2545C80.4932 39.204 79.4489 39.9837 79.1782 41.122L72.2543 70.2132L68.199 52.6205C67.949 51.5354 66.9944 50.7585 65.8813 50.7341C64.7637 50.7055 63.7802 51.4435 63.4824 52.5164L56.2002 78.7661L52.3113 33.3294C52.214 32.1895 51.3354 31.2714 50.2008 31.1236C49.0655 30.9748 47.9822 31.638 47.5959 32.7149L34.4858 69.2535H12.6416H2.43359C1.08964 69.2535 0 70.3431 0 71.6871C0 73.031 1.08964 74.1207 2.43359 74.1207H16.1463H36.1982C37.2252 74.1207 38.142 73.4757 38.4888 72.509L48.4124 44.8512L52.5045 92.6589C52.6049 93.8325 53.5311 94.7654 54.7038 94.8746C54.7799 94.8816 54.8553 94.8853 54.9308 94.8853C56.0137 94.8853 56.9792 94.1634 57.274 93.1021L65.6097 63.056L69.845 81.43C70.099 82.5315 71.0777 83.313 72.2081 83.3169C72.2111 83.3169 72.2138 83.3169 72.2166 83.3169C73.343 83.3169 74.3232 82.5433 74.5838 81.4467L80.927 54.7952L85.8164 89.6531C85.9749 90.7816 86.8951 91.6492 88.031 91.7408C89.1641 91.8336 90.2142 91.1236 90.5513 90.0345L95.559 73.8526H116.323H125.095C126.439 73.8526 127.528 72.763 127.528 71.4191C127.528 70.0751 126.439 68.9855 125.095 68.9855Z" fill="#324DA0"/>
</svg>
