<svg width="300" height="400" viewBox="0 0 300 400" fill="none" xmlns="http://www.w3.org/2000/svg">
<path d="M0 7.99999C0 3.58171 3.58172 0 8 0H292C296.418 0 300 3.58172 300 8V392C300 396.418 296.418 400 292 400H7.99999C3.58171 400 0 396.418 0 392V7.99999Z" fill="#EAF4FA"/>
<path d="M272.069 400V320.678C272.069 286.978 244.752 259.66 211.052 259.66H180.543V210.847H119.526V259.66H89.0172C55.3178 259.66 28 286.978 28 320.678V400H272.069Z" fill="#E1AC91"/>
<path d="M211.052 259.661H206.048L150.034 332.881L95.1189 259.66H89.0172C55.3178 259.66 28 286.978 28 320.678V400H272.068V320.678C272.068 286.978 244.751 259.661 211.052 259.661Z" fill="#324DA0"/>
<path d="M89.9828 321.532V259.66H77.7794V321.532C64.728 324.9 56.8811 338.214 60.2491 351.266C63.6171 364.317 76.9314 372.164 89.9828 368.796C103.034 365.428 110.881 352.114 107.513 339.062C105.292 330.465 98.5806 323.753 89.9828 321.532ZM83.8811 357.288C77.1389 357.288 71.6777 351.827 71.6777 345.085C71.6777 338.342 77.1389 332.881 83.8811 332.881C90.6234 332.881 96.0845 338.342 96.0845 345.085C96.0845 351.827 90.6241 357.288 83.8811 357.288Z" fill="#76A0DA"/>
<path d="M224.221 315.125V259.66H212.017V315.125C194.414 318.103 181.527 333.332 181.509 351.186V363.39C181.509 366.758 184.242 369.491 187.61 369.491H205.915V357.288H193.712V351.186C193.712 337.707 204.64 326.779 218.119 326.779C231.598 326.779 242.526 337.707 242.526 351.186V357.288H230.322V369.491H248.627C251.995 369.491 254.729 366.758 254.729 363.39V351.186C254.71 333.333 241.824 318.103 224.221 315.125Z" fill="#76A0DA"/>
<path fill-rule="evenodd" clip-rule="evenodd" d="M125.196 140.971C130.237 140.971 134.893 138.282 137.416 133.917C139.937 138.282 144.593 140.971 149.633 140.971C154.677 140.971 159.333 138.282 161.853 133.917C164.374 138.282 169.033 140.971 174.073 140.971C179.114 140.971 183.77 138.282 186.293 133.917C188.813 138.282 193.47 140.971 198.51 140.971C203.551 140.971 208.21 138.282 210.73 133.917C213.25 138.282 217.907 140.971 222.95 140.971V177.628C222.95 207.537 204.796 233.415 178.962 244.784V265.604H205.97C208.021 265.335 210.051 264.668 211.953 263.568C217.875 260.149 220.822 253.553 219.88 247.175C225.797 249.736 232.93 248.599 237.765 243.762C242.602 238.928 243.739 231.794 241.178 225.877C247.556 226.819 254.151 223.873 257.574 217.95C260.99 212.028 260.243 204.842 256.242 199.791C262.645 199.049 268.253 194.498 270.023 187.891C271.792 181.285 269.212 174.54 264.037 170.694C270.031 168.32 274.27 162.472 274.27 155.633C274.27 148.795 270.031 142.947 264.037 140.573C269.212 136.727 271.792 129.982 270.023 123.375C268.253 116.769 262.645 112.218 256.242 111.476C260.243 106.422 260.993 99.2391 257.574 93.3167C254.154 87.3943 247.559 84.4475 241.181 85.3897C243.739 79.473 242.602 72.3392 237.765 67.5022C232.93 62.6681 225.8 61.5312 219.88 64.0914C220.822 57.7108 217.875 51.1155 211.953 47.6961C206.031 44.2795 198.848 45.027 193.794 49.0277C193.052 42.6242 188.501 37.0169 181.894 35.247C175.29 33.4772 168.543 36.0575 164.697 41.2324C162.32 35.2385 156.472 31 149.633 31C142.795 31 136.947 35.2385 134.573 41.2324C130.726 36.0575 123.982 33.4772 117.375 35.247C110.771 37.0169 106.221 42.6242 105.476 49.0306C100.424 45.027 93.2391 44.2795 87.3167 47.6989C81.3943 51.1183 78.4503 57.7137 79.3897 64.0914C73.473 61.5312 66.3392 62.6681 61.5051 67.5051C56.6681 72.3421 55.5312 79.473 58.0914 85.3897C51.7108 84.4503 45.1183 87.3943 41.6989 93.3167C38.2795 99.2391 39.027 106.424 43.0306 111.479C36.6242 112.221 31.0169 116.771 29.247 123.378C27.4772 129.982 30.0575 136.729 35.2324 140.573C29.2385 142.947 25 148.795 25 155.633C25 162.472 29.2385 168.32 35.2324 170.694C30.0575 174.54 27.4772 181.285 29.247 187.891C31.0169 194.495 36.6242 199.049 43.0277 199.791C39.027 204.842 38.2795 212.028 41.6961 217.95C45.1155 223.873 51.7108 226.819 58.0886 225.877C55.5312 231.794 56.6681 238.928 61.5022 243.762C66.3392 248.599 73.4701 249.736 79.3897 247.178C78.4475 253.556 81.3915 260.151 87.3167 263.571C89.2154 264.668 91.2487 265.335 93.2992 265.604H120.308V244.787C94.4734 233.418 76.3196 207.54 76.3196 177.63V140.974C81.36 140.974 86.0194 138.284 88.5367 133.917C91.0597 138.284 95.7163 140.974 100.757 140.974C105.797 140.974 110.456 138.284 112.977 133.917C115.497 138.282 120.156 140.971 125.196 140.971Z" fill="#4C3636"/>
<path fill-rule="evenodd" clip-rule="evenodd" d="M137.249 133C134.722 137.475 130.054 140.233 125.001 140.233C119.945 140.233 115.277 137.475 112.75 133C110.223 137.475 105.552 140.233 100.499 140.233C95.4459 140.233 90.7775 137.475 88.2481 133C85.7215 137.475 81.0531 140.233 76 140.233V177.822C76 208.495 94.1999 235.031 120.1 246.686C129.115 250.745 139.061 253 149.5 253C159.936 253 169.885 250.745 178.9 246.686C204.8 235.028 223 208.492 223 177.822V140.233C217.944 140.233 213.276 137.475 210.749 133C208.222 137.475 203.551 140.233 198.498 140.233C193.445 140.233 188.777 137.475 186.25 133C183.721 137.475 179.052 140.233 173.999 140.233C168.946 140.233 164.275 137.475 161.748 133C159.222 137.475 154.553 140.233 149.497 140.233C144.447 140.233 139.776 137.475 137.249 133Z" fill="#E1AC91"/>
<path d="M130.894 211.63C129.053 214.146 130.147 217.361 133.334 218.813C138.396 221.117 144.159 222.333 150 222.333C155.841 222.333 161.604 221.117 166.666 218.813C169.853 217.361 170.947 214.146 169.106 211.63C167.265 209.116 163.192 208.253 160 209.705C156.963 211.088 153.505 211.819 150 211.819C146.495 211.819 143.037 211.088 140 209.705C136.81 208.253 132.735 209.116 130.894 211.63Z" fill="#4C3636"/>
<path d="M127.331 184.226C131.381 184.226 134.663 180.944 134.663 176.894C134.663 172.845 131.381 169.563 127.331 169.563C123.282 169.563 120 172.845 120 176.894C120 180.944 123.282 184.226 127.331 184.226Z" fill="#4C3636"/>
<path d="M172.053 184.226C176.102 184.226 179.384 180.944 179.384 176.894C179.384 172.845 176.102 169.563 172.053 169.563C168.003 169.563 164.721 172.845 164.721 176.894C164.721 180.944 168.003 184.226 172.053 184.226Z" fill="#4C3636"/>
</svg>
