<svg width="128" height="128" viewBox="0 0 128 128" fill="none" xmlns="http://www.w3.org/2000/svg">
<g clip-path="url(#clip0)">
<path d="M64.9867 119.934H89.4948C91.7143 119.934 93.0836 117.511 91.938 115.612L91.9157 115.574C90.3294 112.94 90.0206 109.629 91.4346 106.899C92.6697 104.514 94.6766 102.545 97.2048 101.337C114.475 93.0903 126.722 83.8768 127.996 65.0784C128.116 63.2975 126.716 61.7649 124.93 61.7649H64.9889H3.07638C1.29096 61.7649 -0.109632 63.2975 0.0111863 65.0784C1.28425 83.8746 13.5294 93.0903 30.8019 101.337C33.3279 102.543 35.337 104.514 36.5721 106.899C37.9861 109.629 37.6773 112.94 36.091 115.574L36.0687 115.612C34.9231 117.513 36.2924 119.934 38.5119 119.934H64.9867Z" fill="#264787"/>
<path d="M80.5454 113.222H46.9848C45.7498 113.222 44.7474 112.222 44.7474 110.985C44.7474 109.748 45.7498 108.747 46.9848 108.747H80.5454C81.7804 108.747 82.7827 109.748 82.7827 110.985C82.7827 112.222 81.7804 113.222 80.5454 113.222Z" fill="#EAF4FA"/>
<path d="M80.5454 106.51H61.0646C59.8295 106.51 58.8272 105.51 58.8272 104.273C58.8272 103.035 59.8295 102.035 61.0646 102.035H80.5454C81.7804 102.035 82.7827 103.035 82.7827 104.273C82.7827 105.51 81.7804 106.51 80.5454 106.51Z" fill="#EAF4FA"/>
<path d="M54.5605 106.51H46.9848C45.7498 106.51 44.7474 105.51 44.7474 104.273C44.7474 103.035 45.7498 102.035 46.9848 102.035H54.5605C55.7956 102.035 56.7979 103.035 56.7979 104.273C56.7979 105.51 55.7956 106.51 54.5605 106.51Z" fill="#EAF4FA"/>
<path d="M91.7322 8.06572C80.6102 8.06572 71.5959 17.0801 71.5959 28.2021C71.5959 29.7749 71.795 31.2986 72.1351 32.7685C73.2694 33.9342 75.0012 34.3347 76.5181 33.6322L77.3951 33.2272C79.8361 32.0973 82.6574 33.7261 82.8991 36.4043L82.9863 37.3663C83.1564 39.2368 84.6375 40.7201 86.5102 40.888L87.4723 40.9752C90.1504 41.2168 91.7792 44.0404 90.6493 46.4791L90.2444 47.3562C90.1101 47.6448 90.0676 47.9491 90.0094 48.2511C90.58 48.3004 91.1527 48.3384 91.7345 48.3384C102.856 48.3384 111.871 39.3218 111.871 28.2021C111.869 17.0801 102.854 8.06572 91.7322 8.06572Z" fill="#D13834"/>
<path d="M111.81 29.3521C111.211 39.9348 102.465 48.3384 91.7322 48.3384C91.1505 48.3384 90.5733 48.3115 90.0027 48.2623C89.7186 49.7345 90.2578 51.2716 91.5286 52.1665L92.3207 52.7259C94.5177 54.2741 94.5177 57.534 92.3184 59.08L91.5286 59.6371C90.8104 60.1428 90.3339 60.8632 90.0855 61.653C90.1168 61.6888 90.1437 61.7268 90.175 61.7626H120.131C123.328 58.1985 125.288 53.5022 125.288 48.3384C125.293 39.5522 119.657 32.1018 111.81 29.3521Z" fill="#436B1C"/>
<path d="M105.156 61.7626C103.919 61.7626 102.919 60.7625 102.919 59.5253V50.5758C102.919 49.3385 103.919 48.3384 105.156 48.3384C106.394 48.3384 107.394 49.3385 107.394 50.5758V59.5253C107.394 60.7625 106.394 61.7626 105.156 61.7626Z" fill="#659C35"/>
<path d="M118.581 48.3384H109.631C108.394 48.3384 107.394 47.3383 107.394 46.101C107.394 44.8638 108.394 43.8637 109.631 43.8637H118.581C119.818 43.8637 120.818 44.8638 120.818 46.101C120.818 47.3383 119.818 48.3384 118.581 48.3384Z" fill="#659C35"/>
<path d="M101.225 39.9304C100.653 39.9304 100.08 39.7111 99.6436 39.2748L93.314 32.9475C92.4392 32.0727 92.4392 30.6587 93.314 29.7839C94.1888 28.9091 95.6029 28.9091 96.4777 29.7839L102.807 36.1112C103.68 36.986 103.682 38.4 102.807 39.2748C102.369 39.7133 101.798 39.9304 101.225 39.9304Z" fill="#ED3F32"/>
<path d="M83.3577 38.8117C82.785 38.8117 82.2122 38.5924 81.7759 38.1561C80.9011 37.2813 80.9011 35.8673 81.7759 34.9925L86.9868 29.7839C87.8616 28.9091 89.2756 28.9091 90.1504 29.7839C91.0252 30.6587 91.0252 32.0727 90.1504 32.9475L84.9396 38.1561C84.5033 38.5947 83.9305 38.8117 83.3577 38.8117Z" fill="#ED3F32"/>
<path d="M52.491 41.1385C54.6657 41.8165 55.8582 44.3022 54.8491 46.4814L54.4442 47.3584C53.6544 49.0633 54.1981 51.0881 55.7329 52.1688L56.5249 52.7281C58.722 54.2764 58.722 57.5362 56.5227 59.0823L55.7329 59.6394C54.9789 60.1696 54.4733 60.9303 54.2361 61.7671H64.9844H90.0341C90.269 60.9303 90.7769 60.1719 91.5309 59.6394L92.3206 59.0823C94.5177 57.534 94.52 54.2764 92.3229 52.7281L91.5309 52.1688C89.996 51.0881 89.4546 49.0633 90.2421 47.3584L90.6471 46.4814C91.777 44.0404 90.1482 41.2191 87.47 40.9775L86.508 40.8902C84.6375 40.7202 83.1541 39.239 82.9841 37.3686L82.8968 36.4065C82.6552 33.7284 79.8316 32.0996 77.3929 33.2294L76.5181 33.6322C74.8132 34.422 72.7884 33.8783 71.7077 32.3434L71.1506 31.5536C69.6024 29.3543 66.3425 29.3543 64.7943 31.5536L64.2372 32.3434C63.1565 33.8783 61.1317 34.422 59.4268 33.6322L58.5498 33.225C56.1088 32.0951 53.2875 33.7261 53.0458 36.402L52.9586 37.3641C52.8691 38.353 52.4216 39.4605 52.0793 40.1832C51.9003 40.5658 52.0905 41.0132 52.491 41.1385Z" fill="#88C057"/>
<path d="M67.1211 57.2879C66.5484 57.2879 65.9756 57.0686 65.5393 56.6323C64.6645 55.7575 64.6645 54.3435 65.5393 53.4687L67.7767 51.2313C68.6515 50.3565 70.0655 50.3565 70.9403 51.2313C71.8151 52.1061 71.8151 53.5202 70.9403 54.395L68.703 56.6323C68.2667 57.0686 67.6939 57.2879 67.1211 57.2879Z" fill="#436B1C"/>
<path d="M78.308 52.8131C77.7352 52.8131 77.1625 52.5939 76.7262 52.1576L74.4888 49.9202C73.614 49.0454 73.614 47.6314 74.4888 46.7566C75.3636 45.8818 76.7776 45.8818 77.6524 46.7566L79.8898 48.994C80.7646 49.8688 80.7646 51.2828 79.8898 52.1576C79.4535 52.5939 78.8808 52.8131 78.308 52.8131Z" fill="#436B1C"/>
<path d="M66.0024 47.2197C65.4297 47.2197 64.8569 47.0005 64.4206 46.5642C63.5458 45.6894 63.5458 44.2753 64.4206 43.4005L67.7767 40.0445C68.6515 39.1697 70.0655 39.1697 70.9403 40.0445C71.8151 40.9193 71.8151 42.3333 70.9403 43.2081L67.5843 46.5642C67.148 47.0005 66.5752 47.2197 66.0024 47.2197Z" fill="#436B1C"/>
<path d="M94.8959 27.2758C94.3231 27.2758 93.7503 27.0565 93.314 26.6202C92.4392 25.7454 92.4392 24.3314 93.314 23.4566L99.6436 17.1293C100.518 16.2545 101.932 16.2545 102.807 17.1293C103.682 18.0041 103.68 19.4181 102.807 20.293L96.4777 26.6202C96.0414 27.0565 95.4686 27.2758 94.8959 27.2758Z" fill="#ED3F32"/>
<path d="M88.5686 27.2758C87.9958 27.2758 87.423 27.0565 86.9868 26.6202L80.6572 20.293C79.7824 19.4181 79.7824 18.0041 80.6572 17.1293C81.532 16.2545 82.9461 16.2545 83.8209 17.1293L90.1504 23.4566C91.0252 24.3314 91.0252 25.7454 90.1504 26.6202C89.7141 27.0565 89.1413 27.2758 88.5686 27.2758Z" fill="#ED3F32"/>
<path d="M28.0678 31.0547L40.9551 12.7642C43.0806 9.74598 47.2913 9.0166 50.3073 11.1443C53.3255 13.2698 54.0549 17.4806 51.9271 20.4966L39.0399 38.7871C36.9144 41.8053 32.7037 42.5347 29.6877 40.4069C26.6695 38.2814 25.9401 34.0729 28.0678 31.0547Z" fill="#A46F3E"/>
<path d="M56.5227 52.7237L55.7329 52.1665C54.1981 51.0859 53.6544 49.0611 54.4442 47.3562L54.8491 46.4791C55.979 44.0382 54.348 41.2168 51.6721 40.9752L50.71 40.888C48.8396 40.7179 47.3562 39.2368 47.1884 37.3663L47.1011 36.4043C46.911 34.3056 45.1322 32.8715 43.1992 32.8849L39.0421 38.7848C36.9166 41.803 32.7059 42.5324 29.6899 40.4047C27.4369 38.8162 26.4614 36.0687 26.9961 33.5203C25.9647 34.0416 24.7409 34.1423 23.6311 33.6299L22.7541 33.2227C20.3131 32.0929 17.4918 33.7239 17.2501 36.3998L17.1629 37.3619C16.9928 39.2323 15.5117 40.7157 13.6413 40.8835L12.6792 40.9707C10.0011 41.2124 8.37225 44.0359 9.50212 46.4747L9.90708 47.3517C10.6969 49.0566 10.1532 51.0814 8.61836 52.1621L7.82856 52.7192C5.63147 54.2674 5.63147 57.5273 7.82856 59.0755L8.61836 59.6327C9.37235 60.1629 9.878 60.9236 10.1129 61.7582H54.2383C54.4733 60.9214 54.9812 60.1629 55.7329 59.6327L56.5227 59.0755C58.722 57.5318 58.722 54.2719 56.5227 52.7237Z" fill="#FBD490"/>
</g>
<defs>
<clipPath id="clip0">
<rect width="128" height="128" fill="white"/>
</clipPath>
</defs>
</svg>
