<svg width="115" height="115" viewBox="0 0 115 115" fill="none" xmlns="http://www.w3.org/2000/svg">
<path d="M79.0043 72.1992C77.1334 70.3282 74.0999 70.3282 72.2289 72.1992C70.3579 74.0702 70.3579 77.1036 72.2289 78.9746L94.249 100.995C96.12 102.866 99.1535 102.866 101.024 100.995C102.895 99.1237 102.895 96.0903 101.024 94.2193L79.0043 72.1992Z" fill="#324DA0"/>
<path d="M47.9167 86.25C69.0876 86.25 86.25 69.0876 86.25 47.9166C86.25 26.7457 69.0876 9.58331 47.9167 9.58331C26.7458 9.58331 9.58334 26.7457 9.58334 47.9166C9.58334 69.0876 26.7458 86.25 47.9167 86.25Z" fill="#324DA0"/>
<path d="M47.9167 79.0625C65.118 79.0625 79.0625 65.118 79.0625 47.9166C79.0625 30.7153 65.118 16.7708 47.9167 16.7708C30.7153 16.7708 16.7708 30.7153 16.7708 47.9166C16.7708 65.118 30.7153 79.0625 47.9167 79.0625Z" fill="#B5D1ED"/>
<path d="M64.4479 34.0208C60.375 29.2292 54.3854 26.3542 47.9167 26.3542C41.4479 26.3542 35.4583 29.2292 31.3854 34.0208C30.4271 34.9792 30.6667 36.6563 31.625 37.375C32.5833 38.3333 34.2604 38.0938 34.9792 37.1354C38.3333 33.3021 42.8854 31.1459 47.9167 31.1459C52.9479 31.1459 57.5 33.3021 60.8542 37.1354C61.3333 37.6146 62.0521 38.0938 62.7708 38.0938C63.25 38.0938 63.9687 37.8542 64.2083 37.6146C65.1667 36.6563 65.1667 34.9792 64.4479 34.0208Z" fill="#EAF4FA"/>
</svg>
