<svg width="115" height="115" viewBox="0 0 115 115" fill="none" xmlns="http://www.w3.org/2000/svg">
<path d="M105.417 57.5C105.417 83.9644 83.9644 105.417 57.5 105.417C31.0366 105.417 9.58334 83.9644 9.58334 57.5C9.58334 31.0366 31.0366 9.58337 57.5 9.58337C83.9644 9.58337 105.417 31.0366 105.417 57.5Z" fill="#324DA0"/>
<path d="M57.5 28.7499C49.2248 28.6186 41.0617 34.3796 39.0818 42.5259C39.0596 42.6877 39.0391 42.833 39.0194 42.9693C38.6403 45.5922 40.6783 47.9165 43.3285 47.9165C45.8306 47.9165 47.778 45.705 48.9818 43.5115C51.0315 39.7765 55.678 37.391 59.8958 38.6327C64.7881 39.7702 68.3435 45.4757 66.6329 50.3124C65.2242 53.5899 61.8508 55.0657 59.1483 57.0495C56.5452 59.224 54.2819 61.9508 53.0703 65.1377C52.9201 65.5327 52.8351 65.949 52.8049 66.3705C52.7876 66.6131 52.7729 66.8568 52.7605 67.1012C52.627 69.7403 54.8405 71.8749 57.483 71.8749H58.071C60.402 71.8749 62.2917 69.9852 62.2917 67.6543C62.2917 67.2753 62.3362 66.8957 62.4635 66.5387C63.4231 63.8477 65.7552 62.0101 68.2813 60.7965C71.3192 59.3015 73.4898 56.7955 75.0183 53.7576C77.6202 49.0905 77.1938 43.3376 74.4194 38.9322C71.0413 32.8472 64.515 28.6598 57.5 28.7499ZM57.5 76.6665C54.855 76.6665 52.7083 78.8132 52.7083 81.4582C52.7083 84.1032 54.855 86.2499 57.5 86.2499C60.145 86.2499 62.2917 84.1032 62.2917 81.4582C62.2917 78.8132 60.145 76.6665 57.5 76.6665Z" fill="#ECF0F1"/>
</svg>
